<?xml version="1.0" encoding="UTF-8" standalone="no"?>
<svg
   xmlns:dc="http://purl.org/dc/elements/1.1/"
   xmlns:cc="http://creativecommons.org/ns#"
   xmlns:rdf="http://www.w3.org/1999/02/22-rdf-syntax-ns#"
   xmlns:svg="http://www.w3.org/2000/svg"
   xmlns="http://www.w3.org/2000/svg"
   viewBox="0 0 4000 4000"
   height="4000"
   width="4000"
   id="svg3815"
   version="1.1">
  <metadata
     id="metadata3821">
    <rdf:RDF>
      <cc:Work
         rdf:about="">
        <dc:format>image/svg+xml</dc:format>
        <dc:type
           rdf:resource="http://purl.org/dc/dcmitype/StillImage" />
        <dc:title></dc:title>
      </cc:Work>
    </rdf:RDF>
  </metadata>
  <defs
     id="defs3819" />
  <path
     id="path3825"
     d="m 1889.3333,3851.9771 c -78.7818,-4.4984 -142.1698,-10.7854 -208,-20.6298 -29.9409,-4.4774 -70.7674,-12.2596 -72.2128,-13.7648 -1.1004,-1.146 -3.4988,-45.6816 -4.6626,-86.5825 -0.4852,-17.05 -1.3867,-31 -2.0034,-31 -1.5533,0 -1.4473,-196.4636 0.1067,-198.0667 0.6755,-0.6966 1.6407,-17.1666 2.1448,-36.6 0.5043,-19.4333 1.3948,-42.8333 1.9789,-52 0.5842,-9.1666 1.119,-18.7934 1.1884,-21.393 l 0.1267,-4.7263 11,-2.2729 c 63.7377,-13.17 169.2617,-25.8686 251.6667,-30.2851 15.0333,-0.8057 37.2333,-2.0645 49.3333,-2.7972 63.7681,-3.8617 102.3172,-3.2291 216.6667,3.5563 83.6138,4.9614 173.2978,16.1136 244,30.3413 l 14.6666,2.9513 0.8912,8.6462 c 5.2763,51.1882 5.2719,340.5364 0,407.9513 l -0.885,11.3053 -7.516,1.6648 c -26.6599,5.9054 -85.5196,15.1488 -138.484,21.7479 -21.8824,2.7263 -65.2326,6.8065 -100.6667,9.4749 -32.3727,2.4378 -50.798,2.8626 -138.6667,3.1971 -55.7333,0.2123 -110.0333,-0.1107 -120.6666,-0.7181 z m 235.3334,-3.837 c 10.2666,-0.8149 31.2666,-2.4141 46.6666,-3.554 63.4828,-4.6985 126.0318,-12.8914 198,-25.9345 25.6712,-4.6525 23.1911,-3.0072 24.2184,-16.0667 5.269,-66.9788 5.2732,-351.4649 0,-402.5644 l -0.8912,-8.6461 -14.6666,-2.9513 c -70.3228,-14.1514 -159.574,-25.2759 -243.3334,-30.3298 -98.6333,-5.9513 -148.9944,-6.8585 -206.6666,-3.7232 -17.2334,0.9368 -42.4334,2.3008 -56,3.031 -81.4162,4.3816 -186.9564,17.112 -250.2038,30.1797 l -10.8704,2.2459 -0.8497,14.0866 c -1.7416,28.8746 -3.3623,69.248 -3.3855,84.3414 -0.013,8.9264 -0.5937,15.9401 -1.3573,16.412 -1.6525,1.0213 -1.8636,192.6666 -0.2121,192.6666 0.6166,0 1.5181,13.95 2.0033,31 1.2012,42.2119 3.5739,85.4458 4.7579,86.6952 0.8842,0.9332 27.1778,6.1032 45.4509,8.9368 4.0333,0.6255 16.3333,2.6498 27.3333,4.4984 55.0695,9.2552 138.19,17.2759 221.3334,21.3576 21.7972,1.0702 201.4009,-0.3108 218.6666,-1.6812 z m -623.9823,-116.2669 c -84.1493,-24.4556 -166.6159,-54.8952 -247.3511,-91.3009 -56.2788,-25.3778 -154.8595,-77.461 -155.7685,-82.2972 -0.5883,-3.1304 55.8282,-59.6084 59.5435,-59.6084 1.412,0 7.5809,2.7733 13.7088,6.1629 111.4272,61.6345 227.0461,109.4793 355.5162,147.1179 l 9.6667,2.8321 v 37.9853 c 0,32.5348 0.2869,38.0956 2,38.753 1.234,0.4734 2,2.5001 2,5.2914 0,4.0664 -0.3708,4.5156 -3.6667,4.4412 -2.0166,-0.045 -18.0586,-4.2653 -35.6489,-9.3773 z m 36.6489,4.9361 c 0,-1.0216 -0.9,-2.2026 -2,-2.6248 -1.713,-0.6573 -2,-6.2181 -2,-38.7529 v -37.9853 l -9.6666,-2.8322 c -128.4427,-37.6304 -244.0938,-85.4858 -355.4572,-147.0852 l -11.0826,-6.1302 -27.8968,27.8182 c -15.3432,15.3002 -27.8968,28.143 -27.8968,28.5396 0,1.3967 54.4295,30.937 91.3334,49.5688 98.5397,49.7506 201.5796,90.1731 310.6844,121.8812 17.5902,5.112 32.4322,9.3319 32.9822,9.3774 0.55,0.045 1,-0.7531 1,-1.7746 z m 925.3334,-38.5916 v -43.1157 l 19.6666,-5.6908 c 115.0267,-33.2852 239.268,-85.0743 346.8495,-144.5816 6.128,-3.3896 11.8245,-6.1629 12.6589,-6.1629 0.8346,0 13.2058,11.7 27.4916,26 17.2972,17.3142 26.9119,26 28.7806,26 3.3761,0 7.8132,4.5297 6.8628,7.0061 -0.9703,2.5287 -54.0187,31.7397 -96.31,53.0332 -99.7192,50.208 -201.2967,89.9211 -310.5822,121.4265 -17.5536,5.0604 -32.7036,9.2008 -33.6666,9.2008 -1.4099,0 -1.7512,-8.4025 -1.7512,-43.1156 z m 33.122,31.1763 c 107.052,-30.7428 211.043,-71.4241 310.2113,-121.3547 43.6376,-21.9712 95.5367,-50.6316 94.5567,-52.2172 -0.3927,-0.6354 -2.0232,-1.1554 -3.6232,-1.1554 -2.0015,0 -11.09,-8.1734 -29.1308,-26.1972 l -26.2218,-26.1972 -21.1238,11.3434 c -40.0202,21.4906 -49.2182,26.187 -79.1156,40.3947 -82.8548,39.3737 -173.9743,74.2329 -256.3415,98.0675 l -19.6667,5.6908 v 39.7824 c 0,26.9788 0.452,39.7822 1.4047,39.7822 0.7725,0 13.8453,-3.5726 29.0507,-7.9393 z M 975.19495,3551.1444 c -13.1438,-8.8075 -56.2916,-39.572 -66.52828,-47.4347 -0.73334,-0.5633 -3.81322,-2.9784 -6.84418,-5.3669 -3.03096,-2.3885 -7.18605,-5.5428 -9.23356,-7.0095 -2.0475,-1.4666 -11.86762,-9.1612 -21.82249,-17.099 -23.72615,-18.9188 -26.72027,-21.3496 -38.66611,-31.3914 -17.94465,-15.0844 -24.55497,-20.7262 -31.45044,-26.8429 -3.72016,-3.3 -11.22604,-9.9 -16.67973,-14.6667 -23.45135,-20.497 -44.15464,-40.5294 -101.44969,-98.1621 -59.48372,-59.8343 -68.85352,-69.5636 -86.52047,-89.8407 -4.76667,-5.4708 -11.11863,-12.6582 -14.11547,-15.9721 -14.21261,-15.7159 -48.8049,-57.814 -71.21786,-86.6709 -30.87079,-39.7463 -71.99094,-97.9256 -71.99647,-101.8651 -0.001,-1.3811 5.84647,-8.7428 12.99647,-16.3596 7.15,-7.6167 14.37217,-15.7584 16.04926,-18.0927 1.6771,-2.3342 13.5271,-15.1658 26.33334,-28.5148 12.80624,-13.3488 23.28406,-25.0793 23.28406,-26.0678 0,-2.3366 136.1177,-138.4542 138.45419,-138.4542 0.97785,0 12.86913,-10.65 26.42505,-23.6666 13.55592,-13.0167 25.71383,-24.2667 27.01756,-25 1.30374,-0.7334 8.7917,-7.3334 16.63991,-14.6667 7.8482,-7.3333 14.81943,-13.5271 15.49159,-13.764 2.04388,-0.7201 66.07637,43.8969 87.9717,61.2977 C 831.9,2767.5735 843,2776.2516 854,2784.8184 c 23.65933,18.4259 42.29251,33.7336 68.66667,56.4119 19.10181,16.4249 40.10644,35.2002 67.29192,60.1497 4.42277,4.0591 11.52071,10.2805 15.77331,13.8255 10.3467,8.6253 71.9852,70.3805 78.6455,78.7945 4.2763,5.4023 13.7013,15.9175 30.9672,34.5491 2.899,3.1282 33.8081,38.0049 42.0529,47.4509 32.5766,37.3228 78.4309,95.9764 109.4493,140 22.6834,32.1939 30.4865,44.0469 30.4865,46.3091 0,1.2221 -1.7314,4.0525 -3.8476,6.2898 -2.1162,2.2372 -8.768,9.4678 -14.7817,16.0678 -6.0136,6.6 -15.0822,16.2713 -20.1523,21.492 -5.0701,5.2205 -9.2184,10.0261 -9.2184,10.6789 0,1.1331 -185.9719,186.6912 -207.2902,206.8291 -5.6283,5.3166 -10.6555,9.6666 -11.1716,9.6666 -0.516,0 -5.4082,4.5 -10.8715,10 -5.4633,5.5 -10.4166,10 -11.0074,10 -0.5907,0 -2.9179,2.1 -5.1715,4.6667 -6.17621,7.0344 -8.85531,6.3928 -28.62615,-6.8556 z m 25.95955,4.1889 c 2.2535,-2.5666 4.5807,-4.6666 5.1715,-4.6666 0.5907,0 5.544,-4.5 11.0073,-10 5.4633,-5.5 10.3555,-10 10.8716,-10 0.516,0 5.5433,-4.35 11.1716,-9.6667 21.3183,-20.1379 207.2902,-205.696 207.2902,-206.8291 0,-0.6528 4.1571,-5.4584 9.238,-10.6789 5.081,-5.2207 14.3972,-15.192 20.7028,-22.1587 6.3055,-6.9666 12.8974,-14.0713 14.6485,-15.788 l 3.1839,-3.1214 -8.7886,-12.8786 c -40.6991,-59.6396 -90.0556,-124.0602 -130.9205,-170.8786 -8.2448,-9.446 -39.1539,-44.3227 -42.0528,-47.451 -17.266,-18.6316 -26.691,-29.1468 -30.9673,-34.549 -6.6603,-8.414 -68.2988,-70.1692 -78.6455,-78.7946 -4.25253,-3.5449 -11.35051,-9.7664 -15.77328,-13.8254 -27.18548,-24.9495 -48.19011,-43.7248 -67.29192,-60.1498 -26.37416,-22.6782 -45.00733,-37.986 -68.66667,-56.4118 -11,-8.5668 -22.1,-17.245 -24.66666,-19.2847 -10.33383,-8.2125 -46.54682,-34.3521 -64.89828,-46.8455 l -19.50203,-13.2765 -10.13317,9.1435 c -5.57326,5.029 -11.33319,10.4973 -12.79986,12.1517 -1.46666,1.6545 -4.34504,4.0431 -6.3964,5.3077 -2.05134,1.2648 -14.74912,12.879 -28.21728,25.8092 C 671.25151,2773.4207 659.43204,2784 658.45419,2784 656.11769,2784 520,2920.1176 520,2922.4541 c 0,0.9886 -10.65,12.8927 -23.66667,26.4538 -13.01666,13.5612 -24.26666,25.7173 -25,27.0137 C 470.6,2977.218 463.7,2985.0357 456,2993.2941 c -7.7,8.2584 -13.86193,15.5099 -13.69317,16.1144 0.45909,1.6446 26.768,39.2332 42.87552,61.2582 28.10405,38.4285 75.8294,97.996 99.36885,124.025 2.99684,3.3139 9.3488,10.5014 14.11547,15.9722 17.66694,20.277 27.03674,30.0064 86.52046,89.8406 57.29506,57.6327 77.99835,77.6651 101.4497,98.1622 5.45369,4.7666 12.95957,11.3666 16.67973,14.6666 17.73207,15.7294 39.88507,34.1283 70.11655,58.2343 9.95486,7.9379 19.77498,15.6324 21.82249,17.0991 2.04751,1.4666 6.2026,4.6209 9.23356,7.0094 3.03096,2.3886 6.11084,4.8036 6.84417,5.367 21.08134,16.1925 82.53558,58.9569 84.7235,58.9569 0.55014,0 2.84408,-2.1 5.09767,-4.6667 z M 3000,3556.6541 c -3.3,-3.2104 -11.1,-10.4556 -17.3333,-16.1005 -24.8836,-22.5349 -32.7226,-29.8025 -46.9768,-43.5536 -8.1718,-7.8833 -15.6542,-14.3333 -16.6276,-14.3333 -2.2962,0 -137.729,-135.4362 -137.729,-137.7324 0,-0.959 -6.3,-8.0972 -14,-15.8628 -7.7,-7.7656 -14,-14.5539 -14,-15.0852 0,-0.5314 -4.8,-5.7339 -10.6666,-11.5612 C 2736.8,3296.5977 2732,3291.4635 2732,3291.0159 c 0,-0.7119 -6.1301,-7.518 -23.3784,-25.9564 -2.5419,-2.7172 -4.6216,-5.6602 -4.6216,-6.5399 0,-1.6191 11.6356,-19.432 23.8549,-36.5196 3.6708,-5.1333 8.3552,-11.7147 10.4096,-14.6252 4.6242,-6.5509 29.8055,-40.1081 41.5532,-55.3748 28.4779,-37.008 74.7395,-91.1879 115.851,-135.6801 6.9524,-7.5242 14.3378,-16.0231 16.4121,-18.8866 4.9607,-6.8478 77.6311,-79.4166 83.2988,-83.1822 2.4153,-1.6048 14.1931,-11.9475 26.1727,-22.9838 46.3378,-42.689 87.1433,-77.1756 136.4477,-115.318 31.4489,-24.329 98.4993,-71.8824 102.9956,-73.0462 1.7964,-0.465 8.408,4.8029 23.1312,18.4302 5.15,4.7667 14.6665,13.4667 21.1479,19.3334 16.8265,15.2308 199.3661,197.7053 215.7392,215.6625 7.5244,8.2523 17.5384,19.2041 22.2536,24.3375 16.1354,17.5668 19.3992,21.6341 19.3992,24.1753 0,2.2249 -9.5972,17.1955 -25.7443,40.158 -2.7073,3.85 -7.1305,10.15 -9.8293,14 -8.8068,12.5635 -36.2951,48.9265 -56.1491,74.2769 -16.1173,20.5794 -41.8471,51.0452 -72.1151,85.3898 -27.1861,30.8474 -155.899,159.4153 -185.4956,185.2866 -12.8333,11.218 -25.1333,21.9912 -27.3333,23.9404 -9.5585,8.4688 -52.1809,43.391 -68.7168,56.3022 -33.3715,26.0565 -96.4584,71.7546 -106.1956,76.9245 -4.0904,2.1717 -4.3872,2.0523 -11.0876,-4.4663 z m 33.3333,-15.1246 c 48.0019,-33.421 115.6806,-85.8955 150,-116.3024 2.2,-1.9492 14.5,-12.7224 27.3334,-23.9404 29.5965,-25.8714 158.3094,-154.4392 185.4956,-185.2867 30.268,-34.3445 55.9977,-64.8104 72.115,-85.3897 19.854,-25.3504 47.3423,-61.7135 56.1491,-74.277 2.6988,-3.85 7.122,-10.15 9.8293,-14 2.7072,-3.85 9.5856,-13.8564 15.2852,-22.2364 l 10.363,-15.2364 -5.3651,-6.0969 c -2.9509,-3.3533 -9.2229,-10.2969 -13.938,-15.4303 -4.7152,-5.1333 -14.7292,-16.0852 -22.2536,-24.3374 -16.3731,-17.9572 -198.9127,-200.4318 -215.7392,-215.6626 -6.4813,-5.8666 -15.9833,-14.5666 -21.1153,-19.3333 -5.1322,-4.7667 -11.7651,-10.6485 -14.7399,-13.0707 l -5.4087,-4.4041 -14.3386,9.7048 c -75.2595,50.9376 -149.2323,109.9415 -222.7866,177.704 -11.9796,11.0363 -23.7573,21.3789 -26.1726,22.9837 -5.6678,3.7656 -78.3382,76.3344 -83.2988,83.1823 -2.0743,2.8635 -9.4598,11.3624 -16.4122,18.8865 -70.747,76.565 -131.5208,152.0866 -181.9405,226.0915 -4.9348,7.2433 -8.0496,13.0685 -7.4803,13.9897 1.152,1.8639 3.7998,4.8348 16.3694,18.3666 5.1605,5.5556 9.3828,10.4672 9.3828,10.9149 0,0.4476 4.8,5.5819 10.6666,11.4092 5.8667,5.8273 10.6667,11.0299 10.6667,11.5612 0,0.5313 6.3,7.3196 14,15.0852 7.7,7.7656 14,14.9039 14,15.8628 0,2.3072 135.4385,137.7324 137.7459,137.7324 0.9826,0 7.8506,5.85 15.2621,13 13.4133,12.9401 26.7367,25.324 48.3253,44.918 6.2334,5.6573 13.9236,12.6507 17.0896,15.5408 3.3092,3.0208 6.4267,4.8577 7.3334,4.3212 0.8673,-0.5132 11.477,-7.826 23.577,-16.2505 z M 436.20947,2896.3333 C 379.42179,2798.8251 325.76831,2678.1324 287.58269,2562 c -10.91773,-33.2037 -28.91602,-93.9488 -28.91602,-97.5931 0,-1.3956 8.53925,-1.7402 43.11564,-1.7402 h 43.11564 l 5.69092,19.6666 c 33.26729,114.9652 85.12418,239.3586 144.63245,346.9415 3.3616,6.0773 6.11201,11.8748 6.11201,12.8833 0,1.0086 -11.7,13.4542 -26,27.6568 -14.3,14.2028 -26,26.8442 -26,28.0919 0,3.7844 -2.60974,7.4265 -5.32142,7.4265 -1.7551,0 -4.2103,-2.832 -7.80244,-9 z m 9.12386,1.4674 c 0,-2.8199 5.31647,-8.8088 26.35282,-29.686 l 26.3528,-26.1534 -5.12519,-9.314 C 432.10452,2722.1389 381.27873,2600.2736 347.9222,2485 l -5.69092,-19.6667 h -39.78231 c -28.09974,0 -39.7823,0.4318 -39.7823,1.4702 0,3.29 16.92565,60.092 27.57176,92.5298 28.2274,86.0068 61.70658,167.1906 101.72228,246.6667 20.07409,39.8696 50.46348,95.3333 52.23454,95.3333 0.62595,0 1.13808,-1.5897 1.13808,-3.5326 z m 3080.99997,-24.1088 c -15.95,-15.9762 -29,-29.4911 -29,-30.0332 0,-0.5422 2.9952,-6.3799 6.6562,-12.973 61.765,-111.236 110.1673,-228.0294 147.958,-357.019 l 2.8321,-9.6667 h 37.8009 c 32.3708,0 37.9111,-0.2873 38.5683,-2 0.4817,-1.2553 2.5207,-2 5.476,-2 4.0275,0 4.7085,0.4445 4.7085,3.0736 0,4.7655 -16.2765,60.4809 -28.9,98.9264 -28.7438,87.5409 -62.143,168.2776 -103.1444,249.3333 -27.3785,54.1247 -47.9102,90.568 -51.2889,91.0364 -1.9335,0.268 -10.6404,-7.617 -31.6667,-28.6778 z m 47.1439,-2.0252 c 64.8421,-116.7206 119.736,-249.0515 155.8351,-375.6667 4.4952,-15.7667 8.4793,-29.7167 8.8536,-31 0.8528,-2.9241 -3.236,-3.2373 -4.3504,-0.3333 -0.6572,1.7126 -6.1975,2 -38.5683,2 h -37.8009 l -2.8322,9.6666 c -37.6525,128.518 -85.4788,244.081 -147.1746,355.6188 l -6.2196,11.2443 27.7114,27.7352 c 15.2414,15.2543 28.1244,27.7351 28.629,27.7351 0.5046,0 7.6673,-12.15 15.9169,-27 z m -2203.6169,-24.2398 c -2.2768,-0.991 -4.4746,-2.9176 -4.8838,-4.2812 -7.6537,-25.4998 -117.0676,-395.5466 -146.2056,-494.479 -11.8791,-40.3334 -25.1323,-85.0334 -29.4514,-99.3334 -4.3192,-14.3 -15.4196,-51.8 -24.6676,-83.3333 -9.2481,-31.5333 -22.4654,-76.2333 -29.3718,-99.3333 -6.9064,-23.1 -19.6975,-66.3 -28.4246,-96 -8.7271,-29.7 -28.2975,-96 -43.4898,-147.3334 -31.1952,-105.4057 -29.8169,-100.7361 -49.9786,-169.3333 -8.1904,-27.8667 -18.68819,-63.2667 -23.32842,-78.6667 -4.64023,-15.4 -15.13972,-50.8 -23.3322,-78.6666 C 958.534,1468.8 945.56907,1424.9611 937.91553,1399.2469 930.26199,1373.5327 924,1351.2292 924,1349.6836 c 0,-2.0081 1.23659,-3.1904 4.33333,-4.1425 5.58124,-1.7163 706.21437,-2.1095 708.81197,-0.3979 0.9967,0.6567 3.2108,6.818 4.9203,13.692 3.5148,14.1332 6.0033,23.6892 23.7399,91.1648 20.626,78.4679 27.4217,104.9508 28.7645,112.0961 0.6991,3.7195 1.8848,8.2195 2.6352,10 2.3809,5.6502 28.1281,105.8348 28.1281,109.4491 0,6.8575 -1.356,7.0955 -42.4162,7.4455 -20.9054,0.1782 -38.2284,0.5428 -38.4958,0.8102 -0.5177,0.5178 4.0343,15.557 13.5796,44.8658 5.8015,17.8133 14.2203,44.8028 35.3515,113.3333 12.7475,41.3411 26.432,85.0179 31.9581,102 2.1476,6.6 6.0544,19.2 8.6816,28 5.3624,17.9611 10.7476,35.336 16.6738,53.7961 2.2004,6.8546 4.0008,13.9046 4.0008,15.6667 0,1.7621 0.4762,3.2039 1.0582,3.2039 0.9002,0 15.8255,-17.3351 26.8818,-31.222 5.9361,-7.4559 35.0858,-42.724 37.5608,-45.4447 3.3468,-3.6791 29.2298,-34.9239 32.4669,-39.1927 1.4489,-1.9106 8.3489,-10.3188 15.3333,-18.6845 6.9844,-8.3659 15.3624,-18.5659 18.6178,-22.6667 3.2553,-4.1009 9.8553,-12.033 14.6666,-17.6269 4.8114,-5.594 11.823,-14.0089 15.5814,-18.6997 8.0896,-10.0968 9.6924,-12.0371 20.758,-25.1295 4.6486,-5.5 10.523,-12.7 13.0545,-16 4.6359,-6.0436 24.3547,-29.6456 32.6873,-39.1244 1.4667,-1.6684 4.3472,-5.2479 6.4012,-7.9545 5.8022,-7.6458 7.8904,-6.7318 21.7275,9.5096 6.6707,7.8297 31.2837,36.436 54.6956,63.5693 84.6331,98.0861 102.5532,118.8449 111.6481,129.3333 5.0874,5.8667 21.8435,25.3667 37.236,43.3334 15.3927,17.9666 28.3602,33.0917 28.817,33.6112 0.4566,0.5194 1.5946,0.472 2.5289,-0.1054 0.9343,-0.5774 10.3872,-30.4024 21.0067,-66.2778 10.6193,-35.8754 22.9514,-77.228 27.4048,-91.8947 8.6444,-28.4703 11.4001,-37.66 19.7918,-66 21.4332,-72.3824 27.19,-91.2221 28.843,-94.3905 1.0357,-1.9852 1.8868,-4.443 1.8912,-5.4618 0,-1.0186 1.7657,-7.6186 3.9138,-14.6666 4.5056,-14.7832 5.0444,-17.5911 3.7658,-19.6256 -0.658,-1.0472 -11.3375,-1.2975 -36.6447,-0.8588 -33.4055,0.5789 -35.9148,0.458 -38.7899,-1.8702 l -3.074,-2.489 17.9984,-71.3188 c 9.8991,-39.2252 28.8639,-114.5187 42.144,-167.3187 13.2802,-52.8 24.4555,-97.0368 24.8342,-98.304 0.3785,-1.2671 2.9021,-2.9416 5.6078,-3.7211 3.4336,-0.9892 111.3894,-1.3001 357.4408,-1.0294 325.8415,0.3585 352.6264,0.5542 353.9087,2.587 1.0545,1.6719 -1.6889,12.5439 -11.4393,45.3334 -13.4722,45.3049 -44.5447,150.8796 -72.5398,246.4674 -9.1278,31.1667 -22.216,75.5667 -29.0848,98.6667 -6.8686,23.1 -20.3789,69 -30.0228,102 -9.6437,33 -19.5473,66.6 -22.008,74.6667 -2.4606,8.0666 -11.4628,38.6666 -20.0048,68 -8.5418,29.3333 -16.9656,58.1333 -18.7192,64 -14.8981,49.8408 -20.9394,70.2876 -33.2894,112.6666 -7.8004,26.7667 -19.7939,67.5667 -26.6524,90.6667 -6.8586,23.1 -21.278,72 -32.0434,108.6667 -36.7361,125.1226 -56.7829,193.3182 -62.7114,213.3333 -3.2584,11 -12.8604,43.7 -21.338,72.6667 -8.4776,28.9666 -22.5308,76.6666 -31.2292,106 -8.6984,29.3333 -18.5107,62.5538 -21.805,73.8236 -3.2942,11.2696 -6.6632,21.1637 -7.4864,21.9869 -1.0514,1.0515 -11.6921,1.3717 -35.7764,1.0767 -18.8538,-0.231 -69.6797,0.2145 -112.9464,0.99 -127.0446,2.277 -226.8526,2.8182 -231.3382,1.2546 -2.9511,-1.0288 -4.3519,-2.6802 -5.487,-6.4684 -0.8458,-2.8232 -3.2262,-6.3453 -5.3494,-7.915 -2.1039,-1.5555 -3.8254,-3.5999 -3.8254,-4.543 0,-0.9432 -2.1,-3.574 -4.6666,-5.8464 -2.5667,-2.2722 -4.6667,-5.0976 -4.6667,-6.2782 0,-1.1808 -1.4687,-2.7052 -3.2636,-3.3876 -1.7949,-0.6826 -4.3192,-2.9176 -5.6095,-4.9671 -1.2902,-2.0493 -3.7217,-5.4221 -5.403,-7.4951 -1.6815,-2.0729 -3.0572,-4.6704 -3.0572,-5.7721 0,-1.1017 -3.75,-6.3917 -8.3334,-11.7555 -4.5833,-5.3638 -10.7333,-12.8054 -13.6666,-16.5369 -2.9334,-3.7316 -6.9834,-8.5901 -9,-10.7968 -2.0167,-2.2067 -3.6667,-4.5256 -3.6667,-5.1531 0,-0.6274 -1.95,-3.2669 -4.3333,-5.8654 -2.3834,-2.5986 -6.4334,-7.5552 -9,-11.0148 -2.5667,-3.4598 -6.4667,-8.6115 -8.6667,-11.4483 -2.2,-2.8369 -5.8,-7.5992 -8,-10.5829 -2.2,-2.9838 -6.1,-7.7506 -8.6667,-10.593 -7.8136,-8.6526 -14.6666,-17.486 -14.6666,-18.9046 0,-0.739 -5.7711,-8.048 -12.8248,-16.2423 -7.0536,-8.1943 -16.5036,-19.9396 -21,-26.1008 -4.4963,-6.1613 -9.377,-12.4903 -10.8456,-14.0644 -1.4687,-1.5741 -3.8208,-4.6332 -5.2268,-6.7979 -1.406,-2.1645 -3.6578,-4.722 -5.0039,-5.6832 -1.3461,-0.9612 -3.4276,-3.6612 -4.6256,-6 -1.198,-2.3388 -5.0132,-7.5524 -8.4784,-11.5857 -3.4652,-4.0333 -6.6833,-8.5613 -7.1513,-10.0621 -0.4682,-1.501 -3.2147,-4.9686 -6.1032,-7.7058 -2.8887,-2.7373 -5.6208,-6.1385 -6.0715,-7.5581 -1.216,-3.8313 -6.382,-4.3144 -40.6553,-3.8021 -29.2424,0.4372 -30.9464,0.602 -32.3299,3.1281 -0.8032,1.4667 -4.2105,5.4668 -7.572,8.8893 -3.3615,3.4224 -7.9117,8.6979 -10.1117,11.7232 -2.2,3.0254 -7.0584,9.2251 -10.7966,13.7774 -3.738,4.5522 -7.8005,10.2212 -9.0277,12.5976 -1.2272,2.3764 -3.7188,5.2954 -5.5368,6.4866 -1.8181,1.1912 -3.3056,2.9923 -3.3056,4.0023 0,1.01 -1.8,3.4401 -4,5.4004 -2.2,1.9601 -4,4.3307 -4,5.2676 0,0.9369 -3.2097,5.1879 -7.1329,9.4463 -3.9231,4.2585 -8.7404,10.1426 -10.7052,13.076 -5.6751,8.4724 -9.2482,13.0668 -13.1734,16.9393 -2.0104,1.9833 -3.6552,4.3163 -3.6552,5.1843 0,1.5044 -6.696,9.85 -13.9522,17.3894 -1.8596,1.9323 -3.3811,4.1518 -3.3811,4.9322 0,0.7805 -2.108,3.0269 -4.6844,4.992 -2.5764,1.9652 -5.0248,4.9296 -5.4411,6.5877 -0.4161,1.6581 -2.2081,4.2769 -3.9822,5.8195 -1.774,1.5425 -3.2256,3.3596 -3.2256,4.0378 0,0.6784 -2.7,4.3964 -6,8.2626 -3.3,3.866 -6,7.815 -6,8.7754 0,0.9606 -0.8408,1.7464 -1.8683,1.7464 -1.0276,0 -3.1159,2.1143 -4.6405,4.6984 -1.5247,2.5843 -3.6839,5.0484 -4.7983,5.476 -1.1145,0.4278 -2.0263,1.6604 -2.0263,2.7395 0,1.0791 -2.4,4.338 -5.3333,7.2423 -2.9333,2.9041 -5.3333,5.877 -5.3333,6.6065 0,0.7295 -2.1,3.4263 -4.6667,5.9929 -2.5667,2.5667 -4.6667,5.8127 -4.6667,7.2135 0,1.4008 -1.7442,3.5772 -3.8762,4.8365 -2.3331,1.3783 -4.1806,3.8118 -4.6408,6.1131 -0.4227,2.1136 -3.7563,6.8151 -7.4543,10.5129 -3.6792,3.6792 -7.5971,8.4446 -8.7063,10.5895 -1.1092,2.1449 -3.1858,4.5256 -4.6149,5.2904 -1.4291,0.7649 -3.7921,3.9327 -5.2512,7.0396 -4.1769,8.8947 -12.1955,16.9735 -18.2377,18.3749 -2.9931,0.6943 -83.1168,1.2018 -187.8852,1.19 -150.4867,-0.017 -183.396,-0.3378 -186.8064,-1.8224 z m 372.0249,-2.0342 c 6.0423,-1.4015 14.0608,-9.4803 18.2377,-18.375 1.4591,-3.1069 3.8222,-6.2746 5.2512,-7.0396 1.4291,-0.7648 3.5058,-3.1454 4.615,-5.2904 1.1092,-2.1449 5.027,-6.9102 8.7062,-10.5894 3.698,-3.6979 7.0316,-8.3994 7.4543,-10.513 0.4603,-2.3013 2.3077,-4.7348 4.6408,-6.113 2.132,-1.2594 3.8763,-3.4358 3.8763,-4.8366 0,-1.4008 2.1,-4.6468 4.6666,-7.2134 2.5667,-2.5667 4.6667,-5.2635 4.6667,-5.993 0,-0.7294 2.4,-3.7024 5.3333,-6.6065 2.9334,-2.9043 5.3334,-6.1632 5.3334,-7.2423 0,-1.079 0.9117,-2.3117 2.0262,-2.7394 1.1144,-0.4276 3.2736,-2.8918 4.7983,-5.476 1.5247,-2.5842 3.6129,-4.6984 4.6405,-4.6984 1.0275,0 1.8683,-0.7859 1.8683,-1.7464 0,-0.9604 2.7,-4.9095 6,-8.7755 3.3,-3.8661 6,-7.5841 6,-8.2625 0,-0.6783 1.4516,-2.4954 3.2256,-4.0379 1.7741,-1.5425 3.5756,-4.1988 4.0032,-5.9027 0.4277,-1.7038 2.5761,-4.3786 4.7744,-5.944 2.1983,-1.5653 3.9968,-3.5218 3.9968,-4.348 0,-0.826 1.8239,-3.3352 4.0531,-5.5758 7.2401,-7.2775 14.6136,-16.3344 14.6136,-17.9503 0,-0.868 1.6448,-3.2009 3.6552,-5.1843 3.9252,-3.8725 7.4982,-8.4669 13.1733,-16.9393 1.9648,-2.9333 6.7821,-8.8175 10.7052,-13.076 3.9232,-4.2584 7.1329,-8.5093 7.1329,-9.4463 0,-0.9369 1.8,-3.3074 4,-5.2676 2.2,-1.9602 4,-4.3904 4,-5.4004 0,-1.01 1.4875,-2.811 3.3056,-4.0022 1.818,-1.1912 4.3096,-4.1103 5.5368,-6.4867 1.2272,-2.3764 5.2898,-8.0453 9.0278,-12.5976 3.7381,-4.5523 8.5965,-10.752 10.7965,-13.7773 2.2,-3.0254 6.7503,-8.3008 10.1117,-11.7232 3.3615,-3.4226 6.7688,-7.4227 7.5719,-8.8894 1.3896,-2.5378 3.0823,-2.6886 35.0339,-3.121 37.0489,-0.5015 42.0606,-0.063 43.2848,3.795 0.4506,1.4196 3.1828,4.8208 6.0714,7.5582 2.8886,2.7372 5.6351,6.2048 6.1032,7.7057 0.468,1.5008 3.6862,6.0288 7.1514,10.0621 3.4652,4.0334 7.2804,9.247 8.4784,11.5858 1.198,2.3388 3.2794,5.0388 4.6256,6 1.3461,0.9612 3.5978,3.5186 5.0038,5.6832 1.406,2.1646 3.7582,5.2237 5.2268,6.7978 1.4687,1.5742 6.3494,7.9031 10.8456,14.0644 4.4964,6.1612 13.9464,17.9066 21,26.1008 7.0538,8.1943 12.8248,15.5034 12.8248,16.2423 0,1.4187 6.8531,10.252 14.6667,18.9047 2.5667,2.8424 6.4667,7.6092 8.6667,10.5929 2.2,2.9837 5.8,7.746 8,10.5829 2.2,2.8368 6.1,7.9886 8.6666,11.4483 2.5667,3.4596 6.6167,8.4163 9,11.0148 2.3834,2.5985 4.3334,5.238 4.3334,5.8655 0,0.6274 1.65,2.9464 3.6666,5.153 2.0167,2.2067 6.0667,7.0652 9,10.7968 2.9334,3.7315 9.0834,11.1731 13.6667,16.537 4.5833,5.3637 8.3333,10.6537 8.3333,11.7554 0,1.1018 1.3758,3.6992 3.0572,5.7722 1.6814,2.0729 4.1128,5.4457 5.4031,7.495 1.2903,2.0495 3.8145,4.2846 5.6095,4.9671 1.7949,0.6824 3.2636,2.2068 3.2636,3.3876 0,1.1807 2.1,4.006 4.6666,6.2783 2.5667,2.2724 4.6667,4.9032 4.6667,5.8464 0,0.943 1.7215,2.9874 3.8253,4.5429 2.1232,1.5697 4.5036,5.0919 5.3495,7.9151 1.0975,3.6626 2.5463,5.435 5.1747,6.3305 4.3209,1.472 113.6809,0.9537 225.4178,-1.0684 42.772,-0.774 93.6579,-1.2897 113.0798,-1.1461 22.635,0.1674 35.8017,-0.2283 36.6757,-1.1023 0.7499,-0.7499 4.0588,-10.584 7.3531,-21.8536 3.2942,-11.2697 13.1065,-44.4903 21.8049,-73.8236 8.6984,-29.3333 22.7516,-77.0333 31.2292,-106 8.4776,-28.9667 18.0796,-61.6667 21.338,-72.6667 5.9285,-20.015 25.9753,-88.2106 62.7115,-213.3333 10.7653,-36.6667 25.1848,-85.5667 32.0433,-108.6667 6.8585,-23.1 18.852,-63.9 26.6524,-90.6666 12.35,-42.3791 18.3913,-62.8259 33.2895,-112.6667 1.7536,-5.8667 10.1773,-34.6667 18.7192,-64 8.542,-29.3333 17.5441,-59.9333 20.0048,-68 2.4606,-8.0667 12.3642,-41.6667 22.008,-74.6667 9.6438,-33 23.1541,-78.9 30.0228,-102 6.8688,-23.1 19.9582,-67.5 29.0877,-98.6666 34.8071,-118.8258 62.846,-214.0156 73.4433,-249.3334 7.4674,-24.8864 10.591,-37.2021 9.7226,-38.3333 -1.7352,-2.2601 -699.5931,-2.4669 -706.0695,-0.2092 -3.2131,1.1201 -4.4743,2.5864 -5.4479,6.3333 -2.7065,10.4171 -33.1073,130.9699 -57.5206,228.095 -24.2158,96.339 -25.4787,101.9817 -23.1991,103.6485 1.9063,1.3939 9.8717,1.6391 38.0648,1.1712 40.0031,-0.6636 39.5791,-0.7561 37.9516,8.2799 -0.4967,2.7581 -2.6647,10.7812 -4.8177,17.829 -2.1531,7.048 -3.9184,13.648 -3.923,14.6667 0,1.0188 -0.8554,3.4765 -1.8912,5.4617 -1.6529,3.1684 -7.4097,22.0082 -28.8429,94.3906 -8.3917,28.34 -11.1475,37.5297 -19.7919,66 -4.4533,14.6666 -16.7854,56.0193 -27.4048,91.8946 -10.6194,35.8755 -20.0774,65.7308 -21.0178,66.3455 -4.4792,2.9273 -7.9747,-0.1944 -33.243,-29.6893 -14.19,-16.5638 -29.4001,-34.2624 -33.8001,-39.3306 -4.4,-5.068 -13.7349,-15.8158 -20.7444,-23.8841 -7.0095,-8.0683 -41.1847,-47.6695 -75.9451,-88.0028 -34.7602,-40.3333 -69.053,-80.0724 -76.2061,-88.3092 l -13.0056,-14.9757 -3.716,4.8968 c -2.0439,2.6933 -4.9161,6.262 -6.3828,7.9304 -8.3327,9.4788 -28.0515,33.0808 -32.6873,39.1244 -2.5315,3.3 -8.4059,10.5 -13.0546,16 -11.0656,13.0924 -12.6684,15.0326 -20.758,25.1294 -3.7584,4.6908 -10.77,13.1058 -15.5813,18.6998 -4.8113,5.5938 -11.4113,13.526 -14.6667,17.6269 -3.2553,4.1008 -11.6333,14.3008 -18.6177,22.6667 -6.9844,8.3657 -13.8844,16.7738 -15.3333,18.6845 -3.2371,4.2688 -29.1202,35.5136 -32.467,39.1927 -2.506,2.7546 -31.7618,38.1561 -37.5608,45.4509 -17.8288,22.4276 -27.2729,32.6448 -29.8362,32.2784 -1.8242,-0.2608 -2.9048,-1.5345 -3.1639,-3.7293 -0.3723,-3.153 -3.7747,-14.6723 -12.4052,-42 -2.0844,-6.6 -5.934,-19.2 -8.5545,-28 -2.6207,-8.8 -6.522,-21.4 -8.6696,-28 -5.4539,-16.7602 -19.0822,-60.2466 -31.9659,-102 -18.2761,-59.2284 -36.0984,-116.1116 -38.6136,-123.2418 -1.3112,-3.717 -3.4581,-10.6582 -4.7709,-15.4249 -1.3128,-4.7667 -3.5944,-11.5855 -5.0703,-15.1529 -4.4695,-10.8043 -5.6841,-10.4642 38.0939,-10.6686 33.3824,-0.1558 38.5278,-0.4545 40.4206,-2.3461 2.003,-2.0017 1.1355,-6.1349 -11.333,-54 -7.4262,-28.5079 -14.1159,-53.2892 -14.8662,-55.0696 -0.7504,-1.7805 -1.9361,-6.2805 -2.6352,-10 -1.3428,-7.1453 -8.1385,-33.6283 -28.7645,-112.0961 -17.7365,-67.4756 -20.2251,-77.0316 -23.7399,-91.1648 -1.7094,-6.874 -3.9236,-13.033 -4.9202,-13.6866 -2.617,-1.7161 -697.9129,-1.3057 -703.53033,0.4154 -3.18538,0.976 -4.19714,1.9489 -3.69845,3.5564 2.27623,7.3373 29.5688,99.434 42.14437,142.2129 8.19186,27.8667 18.69083,63.2667 23.33106,78.6667 4.64022,15.4 15.13805,50.8 23.32845,78.6666 20.1617,68.5972 18.7834,63.9276 49.9786,169.3334 15.1923,51.3333 34.7627,117.6333 43.4898,147.3333 8.7271,29.7 21.5181,72.9 28.4246,96 6.9064,23.1 20.1237,67.8 29.3717,99.3333 9.2481,31.5334 20.3485,69.0334 24.6676,83.3334 4.3192,14.3 17.5724,59 29.4515,99.3333 29.138,98.9324 138.5519,468.9792 146.2056,494.4791 1.8641,6.211 -2.1347,6.082 189.0235,6.1036 103.1712,0.013 182.2273,-0.4963 185.2185,-1.19 z M 2204,2336.2153 c -8.4333,-6.4005 -60.2327,-45.3406 -115.1095,-86.5334 l -99.7762,-74.8963 -10.8904,6.7855 c -5.9899,3.732 -21.9906,13.8102 -35.5572,22.3961 -13.5667,8.586 -34.1432,21.5557 -45.7255,28.8217 -11.5824,7.2662 -29.3763,18.4611 -39.542,24.8778 -18.5939,11.7365 -21.4292,13.0637 -21.3635,10 0.02,-0.9167 13.0698,-19.151 29,-40.5207 15.9304,-21.3697 37.3298,-50.1697 47.5542,-64 58.2654,-78.8141 74.8068,-100.4731 76.6838,-100.4084 1.1328,0.039 8.0596,7.3855 15.393,16.3256 7.3333,8.94 21.9358,26.758 32.45,39.5957 44.8742,54.7907 53.1621,64.8519 58.2166,70.6738 16.17,18.6249 128.0679,155.2513 128.4311,156.8133 0.9803,4.2156 -5.2503,1.0851 -19.7644,-9.9307 z m 7.0468,-0.5486 c -2.2649,-2.95 -101.9064,-123.9367 -111.6428,-135.559 -16.5317,-19.7338 -37.878,-45.6181 -51.7689,-62.7744 -7.4219,-9.1666 -23.6264,-28.8622 -36.01,-43.7678 l -22.5156,-27.1012 -22.2214,29.7733 c -12.2218,16.3753 -33.0214,44.3912 -46.2214,62.2576 -13.2,17.8664 -35.7659,48.2973 -50.1464,67.6244 -14.3804,19.3269 -25.4804,34.7303 -24.6667,34.2295 2.532,-1.5582 58.2731,-36.3984 68.8131,-43.0108 5.5,-3.4506 24.0149,-15.1207 41.1442,-25.9338 21.8052,-13.7648 32.018,-19.4932 34.0579,-19.1033 2.33,0.4455 167.0184,122.9248 210.7979,156.7712 10.8984,8.4257 12.6318,9.5268 10.3801,6.5943 z M 246,2399.7891 c -10.26667,-0.504 -27.96667,-1.2871 -39.33333,-1.7402 -13.45964,-0.5364 -21.19452,-1.386 -22.18034,-2.4362 -1.64561,-1.7532 -4.28285,-15.4012 -12.29208,-63.6127 -7.19866,-43.3323 -11.9609,-78.736 -15.51373,-115.3333 -0.35596,-3.6667 -1.24412,-12.6667 -1.97368,-20 -10.85767,-109.1375 -10.83673,-283.667 0.0476,-396.6667 3.05013,-31.6663 8.21739,-76.2379 11.33248,-97.7516 5.35093,-36.9552 14.97292,-91.5988 16.40593,-93.17 0.9631,-1.0559 83.07188,-5.0784 103.66311,-5.0784 7.68621,0 14.04796,-0.5845 14.51073,-1.3333 0.53726,-0.8694 34.87651,-1.3334 98.66667,-1.3334 63.79016,0 98.12941,0.464 98.66667,1.3334 0.47222,0.7641 7.47926,1.3412 16.41202,1.3517 14.57055,0.017 49.45114,1.4431 83.74242,3.4232 l 14.82109,0.8557 1.50087,6.8514 c 3.5793,16.3392 11.27485,62.7974 15.59514,94.1484 8.52164,61.8388 13.27774,114.9141 17.56683,196.0362 7.0106,132.5954 -2.65827,298.935 -25.03348,430.6667 -9.07301,53.4164 -10.56019,59.9539 -13.79639,60.6463 -1.54468,0.3304 -11.44816,0.9402 -22.00774,1.355 -10.55958,0.4148 -19.85958,1.168 -20.66667,1.6738 -1.91881,1.2022 -295.83575,1.307 -320.13409,0.1133 z m 309.33333,-3.7527 c 16.13334,-0.6995 34.80924,-1.6443 41.50203,-2.0995 l 12.16868,-0.8277 2.80605,-14.2213 C 639.75432,2237.2643 652.67792,2053.752 644.97171,1908 c -4.2891,-81.1221 -9.04519,-134.1975 -17.56683,-196.0363 -4.32029,-31.3509 -12.01584,-77.8092 -15.59515,-94.1484 l -1.50086,-6.8513 -14.8211,-0.8557 c -34.29128,-1.9802 -69.17186,-3.4059 -83.74241,-3.4232 -8.93276,-0.013 -15.9398,-0.5876 -16.41203,-1.3518 -1.13565,-1.8376 -190.86434,-1.8376 -192,0 -0.46277,0.7488 -6.82452,1.3334 -14.51073,1.3334 -20.60584,0 -102.70441,4.023 -103.63617,5.0784 -1.50818,1.7084 -12.60547,65.1297 -16.49247,94.2549 -1.17444,8.8 -2.70679,19.9 -3.40521,24.6667 -3.82842,26.1281 -9.33186,86.0721 -12.60854,137.3333 -2.78406,43.5547 -2.80586,213.9067 -0.0332,259.3333 3.04864,49.9478 7.20298,94.7767 12.78859,138 1.46889,11.3667 3.21977,24.9199 3.89085,30.1182 1.25484,9.72 8.5902,53.3717 13.53563,80.5485 1.53463,8.4333 3.21287,15.7977 3.72941,16.3653 0.51655,0.5676 17.99478,1.8384 38.84051,2.8242 45.6424,2.158 285.45551,2.7737 329.90132,0.8469 z M 3502,2398.6667 c -0.4723,-0.7642 -7.4789,-1.3411 -16.412,-1.3515 -8.5735,-0.013 -27.288,-0.6289 -41.588,-1.3755 -32.9376,-1.7196 -43.1315,-2.2064 -50.8525,-2.4284 l -6.186,-0.178 -3.4372,-18.3333 c -14.3418,-76.4953 -24.2352,-158.3132 -28.8195,-238.3333 -0.7983,-13.9334 -2.1479,-37.3334 -2.9991,-52 C 3350.8545,2070 3350.1563,2032.8 3350.154,2002 c -0.013,-125.5952 12.7397,-266.5689 33.8907,-374.7637 2.2833,-11.6799 4.5997,-21.6986 5.1474,-22.2636 4.7632,-4.9135 292.8058,-7.1126 382.2268,-2.9182 24.0908,1.1302 43.968,2.2214 44.1716,2.425 1.4662,1.466 14.695,76.4169 18.3891,104.1872 1.1707,8.8 2.6999,19.9 3.3983,24.6666 4.3614,29.766 10.89,104.1135 13.3473,152 2.2973,44.7684 0.98,234.7202 -1.8725,270 -5.5164,68.228 -10.8255,115.2795 -18.881,167.3334 -4.6676,30.1624 -11.7441,68.8834 -12.7776,69.917 -0.7581,0.7582 -89.3852,4.7503 -105.4488,4.7499 -7.1762,-10e-5 -13.2877,0.5925 -13.7453,1.3331 -0.5372,0.8692 -34.6543,1.3333 -98,1.3333 -63.3457,0 -97.4628,-0.4641 -98,-1.3333 z m 194.6667,-4 c 0.4613,-0.7464 6.7473,-1.3334 14.2792,-1.3334 14.8662,0 71.8821,-2.3372 91.7058,-3.7592 l 12.6518,-0.9074 2.938,-15.3334 c 11.7498,-61.322 20.9861,-134.2514 27.9469,-220.6666 2.8473,-35.3496 4.1544,-220.2095 1.8713,-264.6667 -2.4602,-47.9072 -8.9884,-122.2432 -13.3485,-152 -0.6984,-4.7667 -2.2276,-15.8667 -3.3983,-24.6667 -3.6941,-27.7702 -16.9229,-102.7212 -18.389,-104.1872 -0.2036,-0.2036 -20.0808,-1.2948 -44.1716,-2.4249 -60.4786,-2.8368 -277.1548,-2.8824 -335.325,-0.071 -22.3149,1.0788 -41.0208,2.4236 -41.5685,2.9887 -2.3377,2.4115 -14.1063,69.5547 -20.3952,116.3607 -15.3241,114.0517 -22.5088,264.5549 -17.0899,358 0.8506,14.6666 2.1995,38.0666 2.9978,52 3.981,69.4902 11.8933,139.7574 23.2712,206.6666 7.3317,43.1156 8.5229,48.6579 10.4678,48.7019 0.8559,0.02 19.5562,0.9061 41.5562,1.9703 22,1.0642 46.7145,1.9484 54.9213,1.9648 8.4753,0.017 15.2773,0.6057 15.7453,1.363 0.537,0.869 34.2099,1.3334 96.6667,1.3334 62.4568,0 96.1297,-0.4644 96.6667,-1.3334 z M 258.66667,1537.6989 c 0,-5.4376 15.44865,-58.7322 28.89996,-99.6989 20.34617,-61.9653 44.3697,-123.7003 71.86112,-184.6667 24.66669,-54.7021 77.46332,-154.8611 82.08884,-155.7283 2.7819,-0.5216 59.81674,56.4159 59.81674,59.7147 0,1.2957 -2.75041,7.3281 -6.11201,13.4055 -59.00899,106.6803 -112.02033,233.6133 -143.91957,344.6081 -2.73983,9.5334 -5.53392,18.4007 -6.2091,19.7051 -1.13393,2.1908 -4.02765,2.3627 -37.92602,2.2524 -21.24888,-0.069 -37.35831,0.4113 -38.26587,1.1411 -0.86208,0.693 -3.51743,1.6772 -5.90076,2.1868 -4.10156,0.8769 -4.33333,0.7208 -4.33333,-2.9198 z m 8,-2.3656 c 1.40268,-1.6901 7.41018,-2 38.77346,-2 h 37.11362 l 2.83209,-9.6666 c 37.59159,-128.31 85.54048,-244.1924 147.05757,-355.4071 l 6.00078,-10.8486 -26.32439,-26.3721 c -14.4784,-14.5048 -27.27136,-27.1484 -28.4288,-28.0971 -1.84724,-1.514 -3.94145,1.582 -17.13601,25.3334 -64.8775,116.7851 -119.7609,249.084 -155.86726,375.7248 -4.49521,15.7667 -8.47933,29.7167 -8.8536,31 -0.849,2.9111 2.50138,3.1423 4.83254,0.3333 z m 3390.53373,2.4528 c -1.4684,-0.3932 -3.9013,-6.6797 -7.8093,-20.1786 -33.3536,-115.2074 -85.0327,-239.1703 -144.6124,-346.8823 -3.3616,-6.0774 -6.112,-11.7325 -6.112,-12.5669 0,-0.8345 11.7,-13.2057 26,-27.4916 17.3142,-17.2972 26,-26.9118 26,-28.7806 0,-3.3761 4.5297,-7.8131 7.0061,-6.8628 2.5287,0.9703 31.7397,54.0187 53.0332,96.31 40.4264,80.2918 73.7935,161.3596 102.35,248.6667 14.5104,44.3633 28.7845,94.0885 27.7688,96.7352 -0.6263,1.6323 -6.9944,1.9075 -41.1163,1.7768 -22.2064,-0.085 -41.3349,-0.4117 -42.5081,-0.7259 z m 80.1329,-4.5896 c 0,-3.29 -16.9256,-60.092 -27.5717,-92.5298 -35.5988,-108.4668 -81.5655,-213.7741 -136.3339,-312.3342 -12.8792,-23.1771 -16.8632,-29.3543 -18.2108,-28.2358 -0.9488,0.7874 -1.3742,2.3457 -0.9456,3.463 0.5346,1.393 -7.5136,10.3322 -25.6097,28.4454 l -26.3893,26.414 11.3373,21.1238 c 21.5897,40.2263 24.846,46.6005 39.6127,77.5444 39.7972,83.3954 74.6656,174.3691 98.8526,257.9127 l 5.6938,19.6667 h 39.7824 c 28.0997,0 39.7822,-0.4318 39.7822,-1.4702 z M 731.88924,1294.0959 c -2.95135,-2.9649 -8.27019,-7.8211 -37.08041,-33.8548 -10.3174,-9.323 -199.87355,-198.4466 -217.80883,-217.3117 -5.68333,-5.978 -10.33333,-11.2896 -10.33333,-11.8035 0,-0.8113 -7.00071,-8.5334 -24.75227,-27.303 -2.51959,-2.6641 -4.58107,-6.12995 -4.58107,-7.7019 0,-4.73268 34.7559,-54.89763 70.29366,-101.4584 31.09036,-40.73389 69.07109,-85.95055 109.19296,-129.99593 C 645.76891,732.8868 743.89959,634.98663 774,607.85584 c 55.71179,-50.2154 115.8516,-98.72917 172.67185,-139.29149 32.81507,-23.42572 43.33716,-30.23532 45.85412,-29.67554 1.09931,0.24448 9.02533,7.04452 17.61333,15.11119 8.588,8.06667 16.373,14.96667 17.3,15.33333 0.927,0.36667 13.0778,11.61667 27.0017,25 13.9239,13.38334 26.123,24.33334 27.1092,24.33334 2.3336,0 137.1165,134.78716 137.1165,137.1209 0,0.97783 10.65,12.87004 23.6666,26.42715 13.0167,13.55711 24.2103,25.65488 24.8748,26.88395 0.6644,1.22906 4.9266,6.13466 9.4716,10.90133 13.8023,14.47551 19.3203,20.89153 19.3203,22.46463 0,3.43896 -52.2399,76.74248 -74.2598,104.20204 -0.8821,1.1 -6.835,8.6 -13.2287,16.66666 -27.246,34.37544 -64.2134,77.58483 -95.8205,112 -8.082,8.8 -19.1504,21.1 -24.5966,27.33337 -15.0351,17.2083 -62.9781,65.336 -78.7611,79.0645 -7.7,6.6977 -21.49997,19.1119 -30.66663,27.587 -54.07364,49.9944 -120.61243,104.8261 -174.66667,143.9353 -38.07343,27.5468 -62.88328,44.0798 -66.14721,44.0798 -1.50754,0 -4.19114,-1.4568 -5.96355,-3.2374 z m 25.44409,-12.5869 C 766.5,1275.2833 779.4,1266.2984 786,1261.5427 c 6.6,-4.7558 15,-10.7847 18.66667,-13.3977 45.6923,-32.5616 118.93629,-93.0492 171.33333,-141.4935 9.16667,-8.4751 22.96667,-20.8892 30.6667,-27.587 15.783,-13.7285 63.7259,-61.8562 78.7611,-79.0645 5.4461,-6.23333 16.5146,-18.53333 24.5965,-27.33333 31.6071,-34.41518 68.5745,-77.62456 95.8206,-112 C 1212.2385,852.6 1218.1914,845.1 1219.0735,844 c 14.9349,-18.62432 47.9891,-63.99747 64.8566,-89.02784 l 8.3299,-12.36117 -4.9738,-5.63883 c -2.7355,-3.10135 -8.7004,-9.53883 -13.2552,-14.30549 -4.5549,-4.76667 -8.8252,-9.67227 -9.4896,-10.90134 -0.6644,-1.22906 -11.8581,-13.32684 -24.8747,-26.88394 C 1226.65,671.32428 1216,659.43207 1216,658.45424 c 0,-2.33375 -134.7828,-137.12091 -137.1165,-137.12091 -0.9861,0 -13.1853,-10.95 -27.1092,-24.33333 -13.9239,-13.38333 -26.0724,-24.63333 -26.9967,-25 -0.9242,-0.36667 -8.4001,-6.96667 -16.6131,-14.66667 -8.21289,-7.7 -15.47542,-14.18856 -16.13891,-14.41901 -2.48704,-0.86385 -52.16334,34.20917 -93.35892,65.91435 -41.75078,32.13245 -82.62407,66.20264 -122,101.69384 -30.10042,27.13078 -128.2311,125.03096 -157.18006,156.81082 -65.45928,71.86055 -119.3662,139.7387 -167.63445,211.08084 l -12.00751,17.74751 4.65875,4.91912 c 17.38063,18.3522 24.82993,26.5661 24.82993,27.3784 0,0.514 4.65,5.823 10.33334,11.7978 20.59634,21.6529 205.00253,206.4097 206.01793,206.4097 0.57344,0 5.67899,4.467 11.34567,9.9268 5.66669,5.4597 15.70306,14.8029 22.30306,20.7626 6.6,5.9596 13.43492,12.2755 15.18871,14.0352 1.75379,1.7597 3.85379,2.803 4.66667,2.3184 0.81288,-0.4846 8.97796,-5.9749 18.14462,-12.2007 z m 2485.33337,5.5698 c -19.9971,-13.8888 -39.022,-27.3744 -42.8146,-30.3487 -1.9146,-1.5016 -4.8428,-3.6301 -6.507,-4.7301 -3.212,-2.1229 -19.8695,-14.6687 -35.3451,-26.6206 -27.9712,-21.6023 -72.2388,-57.9714 -90.0251,-73.9624 -3.3138,-2.9794 -10.5138,-9.317 -16,-14.0837 -10.6697,-9.2703 -20.9012,-18.6045 -37.9754,-34.6452 -5.867,-5.5118 -13.067,-11.7752 -16,-13.9186 -6.5416,-4.7806 -80.1552,-78.3343 -84.7162,-84.6473 -1.8058,-2.4995 -3.8833,-5.20468 -4.6166,-6.01159 -0.7334,-0.80689 -8.2743,-8.96188 -16.7575,-18.12218 -39.7829,-42.95779 -84.7489,-96.36843 -120.1003,-142.6551 -33.339,-43.6521 -69.6194,-96.02733 -68.8901,-99.45144 0.4492,-2.10857 15.2135,-18.62242 47.9193,-53.59776 26.9195,-28.78732 216.5568,-217.61746 218.5478,-217.61746 0.8336,0 8.5128,-6.59598 17.0649,-14.65774 8.552,-8.06174 16.5236,-14.66174 17.7144,-14.66666 4.4479,-0.0184 75.5183,49.83317 107.2685,75.24221 3.7219,2.97853 8.7776,6.91552 11.2351,8.74885 10.9733,8.1866 58.2164,47.19455 76.9411,63.52928 64.9246,56.63787 167.7354,159.74715 221.8268,222.47072 34.2592,39.72643 60.5798,72.4728 89.487,111.33334 25.1039,33.74752 50.4096,70.53492 50.4096,73.28113 0,1.19 -2.7,4.81349 -6,8.0522 -3.3,3.2387 -6,6.4473 -6,7.1302 0,0.683 -9,10.6939 -20,22.2465 -11,11.5527 -20,21.5302 -20,22.1724 0,0.6422 -6,7.1451 -13.3333,14.4509 -7.3333,7.3058 -13.3333,13.8967 -13.3333,14.6465 0,1.7749 -137.587,139.3535 -139.3619,139.3535 -0.7439,0 -7.6311,6.3 -15.3048,14 -7.6737,7.7 -14.4812,14 -15.1276,14 -0.6464,0 -10.3288,8.7 -21.5167,19.3333 -11.1877,10.6334 -20.9018,19.3334 -21.587,19.3334 -0.6851,0 -3.281,2.1 -5.7687,4.6666 -2.4877,2.5667 -5.4555,4.6389 -6.5949,4.6049 -1.1395,-0.034 -7.7718,-4.0207 -14.7384,-8.8594 z M 3262,1288 c 2.1077,-2.2 4.4037,-4 5.1021,-4 0.6984,0 10.722,-9 22.2746,-20 11.5526,-11 21.5297,-20 22.1712,-20 0.6416,0 7.445,-6.3 15.1188,-14 7.6737,-7.7 14.5609,-14 15.3046,-14 1.8514,0 136.6954,-134.9521 136.6954,-136.8049 0,-0.8147 6.3,-7.6809 14,-15.2581 7.7,-7.5772 14,-14.3269 14,-14.9994 0,-0.6725 9,-10.6749 20,-22.2275 11,-11.5527 20,-21.5668 20,-22.2535 0,-0.6868 2.4,-3.5923 5.3333,-6.4566 2.9333,-2.86432 5.3333,-5.73675 5.3333,-6.38317 0,-1.85047 -27.8446,-41.72211 -49.083,-70.2835 C 3479.3924,882.52531 3453.0625,849.76521 3418.77,810 3364.6787,747.27643 3261.8679,644.16715 3196.9432,587.52928 3178.2185,571.19455 3130.9755,532.1866 3120.0021,524 c -2.4574,-1.83333 -7.5132,-5.77032 -11.235,-8.74885 -26.6851,-21.35552 -100.6847,-73.87522 -104.1322,-73.90574 -0.7508,-0.007 -8.3485,6.58792 -16.884,14.65459 -8.5354,8.06667 -16.2065,14.66667 -17.0468,14.66667 -2.0504,0 -190.7437,187.98066 -217.4882,216.66666 -26.8627,28.8129 -36.0862,38.86688 -42.0751,45.86363 l -4.7985,5.60596 11.7102,17.59855 c 43.3928,65.21232 113.0078,152.33581 176.5234,220.92029 8.4832,9.16031 16.0241,17.31529 16.7574,18.12219 0.7334,0.8069 2.8108,3.5121 4.6167,6.01155 4.5609,6.313 78.1745,79.8668 84.7161,84.6473 2.9331,2.1435 10.1331,8.4069 16,13.9186 17.0743,16.0407 27.3058,25.375 37.9755,34.6453 5.4861,4.7666 12.6861,11.1043 16,14.0836 17.7863,15.991 62.0539,52.3602 90.0251,73.9625 15.4756,11.9519 32.133,24.4976 35.345,26.6205 1.6643,1.1 4.5924,3.2286 6.5071,4.7301 9.2021,7.2168 53.6164,37.9366 54.848,37.9366 0.4405,0 2.5255,-1.8 4.6332,-4 z M 1940,649.33333 c 0,-0.80902 -5.8985,-1.33898 -15,-1.34772 -46.4889,-0.0447 -144.3136,-8.28268 -215,-18.10572 -36.9796,-5.13893 -103.9285,-16.83741 -105.6735,-18.46512 -0.187,-0.17452 -1.2344,-18.86424 -2.3274,-41.5327 -2.7776,-57.6087 -2.7734,-283.13086 0,-339.88207 1.0776,-22 1.9672,-41.28283 1.9768,-42.85071 0.016,-2.63789 1.884,-3.20937 25.0176,-7.65481 78.5392,-15.09243 164.6588,-25.13907 258.3333,-30.13695 32.8224,-1.7512 196.5109,-1.7512 229.3333,0 74.8884,3.99558 148.4882,11.6154 212,21.94851 27.061,4.40269 61.9723,10.88772 62.7371,11.65388 0.6809,0.68207 4.6079,89.46063 4.602,104.04008 0,8.67051 0.5211,14.33333 1.3276,14.33333 0.8769,0 1.3333,33.77778 1.3333,98.66667 0,64.88889 -0.4564,98.66667 -1.3333,98.66667 -0.8095,0 -1.3357,5.893 -1.3395,15 0,15.40388 -3.7289,98.51289 -4.4446,99.22858 -2.3314,2.33132 -85.884,15.97582 -132.8826,21.70024 -54.428,6.62934 -144.6928,13.35656 -179.6666,13.39012 -9.1015,0.009 -15,0.5387 -15,1.34772 0,0.86978 -21.5556,1.33334 -62,1.33334 -40.4444,0 -62,-0.46356 -62,-1.33334 z m 121.3333,-2.66666 c 0,-0.80903 5.8986,-1.33899 15,-1.34772 34.9739,-0.0336 125.2387,-6.76079 179.6667,-13.39012 46.9985,-5.72443 130.5512,-19.36892 132.8825,-21.70024 0.7158,-0.7157 4.4383,-83.82471 4.4447,-99.22859 0,-9.107 0.53,-15 1.3395,-15 0.8765,0 1.3333,-32.88889 1.3333,-96 0,-63.11111 -0.4568,-96 -1.3333,-96 -0.8066,0 -1.3311,-5.66283 -1.3276,-14.33333 0,-14.57946 -3.9211,-103.35802 -4.602,-104.04008 -0.7648,-0.76616 -35.6762,-7.25119 -62.7371,-11.65388 -63.5119,-10.33311 -137.1116,-17.95294 -212,-21.94851 -32.8139,-1.75075 -191.1861,-1.75075 -224,0 -93.6745,4.99788 -179.7941,15.04452 -258.3333,30.13695 -23.1336,4.44544 -25.0014,5.01692 -25.0176,7.65481 -0.013,1.56788 -0.8992,20.85071 -1.9768,42.85071 -2.7754,56.65954 -2.7796,277.0338 0,334.54873 1.093,22.66847 2.1404,41.35819 2.3274,41.53271 1.745,1.6277 68.6939,13.32618 105.6735,18.46512 70.6864,9.82304 168.5111,18.0611 215,18.10572 9.1015,0.009 15,0.53869 15,1.34772 0,0.86892 20.6667,1.33333 59.3333,1.33333 38.6667,0 59.3334,-0.46441 59.3334,-1.33333 z m 770,-150.20179 c -22.708,-12.84064 -62.4005,-33.31851 -91.6334,-47.27481 -86.5962,-41.34256 -169.4515,-72.84158 -266.0332,-101.13756 L 2464,345.22041 v -37.80089 c 0,-32.3708 -0.2873,-37.91113 -2,-38.56836 -1.2553,-0.48171 -2,-2.52063 -2,-5.47599 0,-4.03222 0.4431,-4.7085 3.0845,-4.7085 4.6567,0 63.9894,17.36449 100.9155,29.53426 84.9387,27.99336 166.0207,61.49539 244.6667,101.09311 43.0505,21.67569 95.3333,50.51108 95.3333,52.57899 0,1.88858 -58.904,60.82265 -60.6776,60.70857 -0.7273,-0.0468 -6.1224,-2.79931 -11.9891,-6.11672 z m 39.6551,-25.45297 c 15.2231,-15.21012 27.6783,-28.06763 27.6783,-28.57224 0,-1.56616 -52.1743,-29.99447 -91.3334,-49.76506 -98.6545,-49.8085 -206.8296,-92.1883 -311.3333,-121.97113 -15.7667,-4.49339 -29.7167,-8.48031 -31,-8.85983 -2.9252,-0.86506 -3.2393,3.2257 -0.3333,4.34084 1.7126,0.65723 2,6.19756 2,38.56836 v 37.8009 l 9.6666,2.83209 c 96.5818,28.29599 179.4371,59.795 266.0332,101.13756 28.7791,13.73961 69.4339,34.70732 90.3002,46.57229 5.1333,2.91892 9.6281,5.36648 9.9884,5.43904 0.3602,0.0725 13.1102,-12.3127 28.3333,-27.52282 z m -1740.8774,4.67197 c -18.2425,-18.40343 -26.3249,-25.67044 -29.2061,-26.25973 -4.3986,-0.89959 -7.0604,-4.02511 -5.9321,-6.96538 1.0141,-2.64284 53.1687,-31.41794 96.3605,-53.16473 78.646,-39.59772 159.728,-73.09975 244.6667,-101.09311 31.7415,-10.46105 96.0515,-29.53426 99.5821,-29.53426 1.4099,0 1.7512,8.40253 1.7512,43.11564 v 43.11564 l -19.6666,5.69092 c -114.9652,33.26729 -239.3585,85.12418 -346.9415,144.63245 -6.0774,3.3616 -12.0267,6.066 -13.2208,6.00977 -1.1941,-0.0563 -13.5211,-11.55249 -27.3934,-25.54721 z m 72.9408,-1.88729 C 1296.3934,424.49727 1413.0657,377.41876 1515,347.9222 l 19.6667,-5.69092 v -39.78231 c 0,-26.97877 -0.452,-39.7823 -1.4047,-39.7823 -3.2512,0 -60.518,17.05598 -92.5953,27.57798 -85.9,28.17695 -167.1657,61.68784 -246.6667,101.71606 -44.6779,22.49504 -95.5687,50.66649 -94.9392,52.55516 0.2596,0.77857 2.277,1.78476 4.4832,2.23598 2.9024,0.5936 10.9838,7.80339 29.2336,26.08054 l 25.2224,25.26014 10.5541,-5.82494 c 5.8048,-3.20374 21.3287,-11.51568 34.4977,-18.471 z"
     style="fill:#000000;stroke-width:1.33333337" />
</svg>
